<svg width="20" height="14" viewBox="0 0 20 14" fill="none" xmlns="http://www.w3.org/2000/svg">
<path d="M19.3104 13.8966H0.689648C0.308984 13.8966 0 13.5876 0 13.2069V0.793103C0 0.4124 0.308984 0.103455 0.689648 0.103455H19.3104C19.6911 0.103455 20 0.412439 20 0.793103V13.2069C20 13.5876 19.691 13.8966 19.3104 13.8966Z" fill="#805333"/>
<path d="M17.5862 3.20693V2.17244C17.5862 1.79173 17.2772 1.48279 16.8966 1.48279H3.10344C2.72273 1.48279 2.41379 1.79177 2.41379 2.17244V3.20693H17.5862Z" fill="#F29C1F"/>
<path d="M17.5862 6.31038V5.27589C17.5862 4.89519 17.2772 4.58624 16.8966 4.58624H3.10344C2.72273 4.58624 2.41379 4.89523 2.41379 5.27589V6.31038H17.5862Z" fill="#4482C3"/>
<path d="M10.6896 12.5173H9.31034C9.11999 12.5173 8.9655 12.3628 8.9655 12.1724C8.9655 11.9821 9.11999 11.8276 9.31034 11.8276H10.6896C10.88 11.8276 11.0345 11.9821 11.0345 12.1724C11.0345 12.3628 10.88 12.5173 10.6896 12.5173Z" fill="#5B3922"/>
<path d="M0 3.55177H20V2.86212H0V3.55177Z" fill="#5B3922"/>
<path d="M0 6.65516H20V5.96552H0V6.65516Z" fill="#5B3922"/>
</svg>
